<svg width="246" height="280" xmlns="http://www.w3.org/2000/svg" xmlns:xlink="http://www.w3.org/1999/xlink" preserveAspectRatio="xMidYMid meet">
 <defs>
  <path id="htzAijSxA" d="m124.04,0.18391c-2.83,0.16 -5.61,0.48 -6.18,0.7c-0.57,0.22 -1.94,0.4 -3.05,0.4c-1.11,0 -2.71,0.16 -3.56,0.35c-0.84,0.19 -2.86,0.61 -4.47,0.92c-1.62,0.32 -3.77,0.82 -4.78,1.11c-1.01,0.29 -3.24,0.93 -4.95,1.42c-7.43,2.13 -18.84,6.93 -22.41,9.42c-0.5,0.35 -1.66,1.01 -2.57,1.47c-4.6,2.29 -14.8,9.37 -17.66,12.26c-1.65,1.67 -2.37,1.63 -4.68,-0.23c-0.81,-0.66 -2.73,-2.1 -4.27,-3.21c-1.53,-1.12 -3.73,-2.72 -4.89,-3.57c-1.15,-0.85 -2.68,-1.98 -3.38,-2.5c-0.71,-0.52 -1.95,-1.42 -2.76,-2.01c-0.81,-0.59 -2.05,-1.51 -2.75,-2.04c-0.71,-0.53 -1.78,-1.28 -2.39,-1.66c-0.61,-0.38 -1.47,-0.96 -1.91,-1.29c-0.76,-0.55 -0.86,-0.54 -1.75,0.35c-0.06,0.06 -0.37,0.37 -0.93,0.93c0,14.52 0,22.59 0,24.2c0,25.2 -0.03,25.81 -1.51,26.72c-0.2,0.12 -0.99,1.49 -1.75,3.04c-0.76,1.55 -2.33,4.52 -3.47,6.61c-1.15,2.09 -2.59,4.99 -3.2,6.43c-0.61,1.44 -1.6,3.7 -2.2,5.01c-1.64,3.61 -4.34,11.27 -5.83,16.53c-0.43,1.51 -0.96,3.25 -1.18,3.85c-0.54,1.51 -1.45,5.31 -2.12,8.91c-0.2,1.06 -0.45,2.06 -0.55,2.23c-0.2,0.32 -0.81,4.31 -1.36,8.88c-0.18,1.51 -0.5,3.83 -0.71,5.14c-1.09,6.89 -1.09,24.43 0,32.68c0.2,1.52 0.53,4.16 0.72,5.88c0.2,1.72 0.6,4.53 0.9,6.24c0.3,1.72 0.66,3.79 0.79,4.59c0.14,0.81 0.56,2.39 0.94,3.52c0.39,1.12 0.7,2.35 0.7,2.73c0,0.7 1.37,5.38 2.63,8.99c0.39,1.11 1.36,3.9 2.16,6.21c0.8,2.3 1.6,4.36 1.79,4.59c0.19,0.22 1.33,2.64 2.55,5.36c1.99,4.47 5.9,11.84 7.64,14.39c4.58,6.72 5.96,8.64 7.15,10.02c1.5,1.71 3.51,4.28 4.49,5.7c1.24,1.82 13.86,13.7 17,16.01c10.11,7.43 23.05,14.12 33.36,17.24c1.82,0.55 4.05,1.24 4.96,1.53c0.91,0.3 2.48,0.69 3.49,0.87c1.01,0.19 3.16,0.6 4.77,0.91c5.02,0.99 21.63,2.08 23.09,1.52c0.58,-0.22 0.18,-2.7 -1.21,-7.55c-0.38,-1.34 -0.97,-3.59 -1.32,-5c-0.58,-2.42 -0.86,-3.74 -2.73,-12.86c-1.17,-5.7 -1.53,-7.12 -2.09,-8.25c-0.29,-0.57 -1.09,-3.41 -1.78,-6.31c-0.69,-2.9 -1.57,-6.51 -1.95,-8.02c-0.38,-1.52 -1.16,-4.74 -1.72,-7.16c-1.21,-5.19 -1.57,-6.68 -3.03,-12.3c-1.7,-6.6 -3.04,-12.31 -3.04,-13.03c0,-0.35 -0.25,-1.41 -0.55,-2.35c-1.03,-3.13 -3.57,-13.77 -4.27,-17.86c-1.62,-9.52 -2.05,-11.37 -4.55,-19.46c-0.87,-2.83 -1.69,-6.12 -1.83,-7.31c-0.13,-1.2 -0.38,-2.44 -0.55,-2.76c-0.41,-0.8 -2.03,-6.64 -2.72,-9.76c-0.3,-1.42 -0.82,-3.65 -1.14,-4.96c-0.32,-1.31 -0.72,-2.97 -0.88,-3.67c-0.17,-0.71 -0.82,-3.25 -1.45,-5.64c-0.63,-2.4 -1.15,-4.89 -1.15,-5.55c0,-0.65 -0.26,-1.71 -0.59,-2.36c-0.32,-0.64 -0.8,-2.36 -1.08,-3.82c-0.65,-3.44 -2.51,-10.82 -3.24,-12.83c-0.31,-0.86 -0.75,-2.81 -0.98,-4.32c-0.67,-4.44 -2.51,-9.36 -3.6,-9.64c-1.52,-0.4 -1.98,0.57 -3.93,8.35c-0.76,3.03 -1.68,6.23 -2.06,7.1c-0.37,0.88 -0.68,2.06 -0.68,2.64c0,0.58 -0.16,1.48 -0.36,2c-0.34,0.88 -1.15,3.87 -4.22,15.62c-1.31,5 -3.14,11.82 -5.15,19.28c-0.71,2.63 -1.79,6.76 -2.4,9.18c-1.77,7.08 -2.9,10.92 -3.63,12.32c-0.37,0.71 -0.79,1.87 -0.94,2.57c-0.15,0.7 -0.49,1.77 -0.75,2.37c-0.27,0.61 -0.56,1.6 -0.66,2.21c-0.1,0.6 -0.5,2.34 -0.89,3.85c-0.4,1.52 -0.93,3.75 -1.2,4.96c-1.78,8.16 -1.91,8.47 -4.59,11.03c-1.36,1.31 -2.77,2.37 -3.12,2.37c-0.35,0 -1.03,0.58 -1.51,1.29c-0.48,0.71 -1.18,1.38 -1.56,1.51c-0.38,0.12 -1.33,0.8 -2.12,1.51c-0.79,0.72 -1.54,1.21 -1.65,1.09c-0.32,-0.31 0.57,-3.75 1.17,-4.54c0.28,-0.37 0.51,-1 0.52,-1.41c0.02,-1.43 1.18,-5.91 2.29,-8.81c0.62,-1.62 1.53,-4.92 2.02,-7.35c0.49,-2.42 1.38,-5.51 1.97,-6.86c0.6,-1.35 1.33,-3.75 1.64,-5.32c0.59,-3.04 1.54,-6.57 2.5,-9.3c2.14,-6.09 3.05,-8.92 4.49,-13.96c0.89,-3.13 1.63,-6.02 1.63,-6.42c0.03,-1.45 3.58,-14.88 5.69,-21.48c0.48,-1.52 1.21,-4 1.61,-5.51c0.4,-1.52 0.98,-3.5 1.28,-4.41c0.31,-0.91 0.83,-2.73 1.17,-4.04c0.33,-1.31 0.89,-3.3 1.25,-4.41c0.36,-1.11 1.03,-3.42 1.48,-5.14c0.45,-1.71 1.12,-4.03 1.49,-5.14c0.37,-1.11 1.09,-3.59 1.6,-5.51c0.5,-1.92 1.41,-5.14 2.02,-7.16c2.28,-7.62 3.7,-12.7 3.7,-13.18c0,-0.28 0.31,-0.88 0.67,-1.33c0.05,-0.06 0.27,-0.33 0.67,-0.83c0.25,0.64 0.38,0.99 0.41,1.06c0.22,0.58 0.51,1.72 0.65,2.53c0.13,0.81 0.37,1.63 0.53,1.84c0.16,0.2 0.58,1.69 0.93,3.3c0.65,2.96 2.24,8.58 3.49,12.3c0.37,1.11 1.03,3.35 1.46,4.96c0.43,1.62 1.01,3.68 1.28,4.59c0.99,3.3 1.64,5.64 3.74,13.41c0.33,1.21 0.8,2.86 1.05,3.67c0.24,0.81 0.9,3.2 1.45,5.32c0.56,2.12 1.75,6.5 2.65,9.73c2.01,7.21 2,7.18 3.64,13.96c0.73,3.03 1.89,6.91 2.57,8.63c1.23,3.09 2.7,8.31 2.73,9.73c0.01,0.41 0.34,1.4 0.73,2.2c0.39,0.81 0.72,1.8 0.72,2.21c0.01,0.4 0.26,1.56 0.55,2.57c0.29,1.01 0.95,3.32 1.48,5.14c0.52,1.82 1.37,4.87 1.89,6.79c0.52,1.92 1.58,5.56 2.36,8.08c0.78,2.53 1.74,5.83 2.14,7.35c0.39,1.51 1.57,5.89 2.62,9.73c1.04,3.84 2.28,8.46 2.75,10.28c0.46,1.82 1.03,3.72 1.26,4.23c0.23,0.5 1.06,3.39 1.84,6.42c0.78,3.03 2.19,8.07 3.13,11.2c0.94,3.13 1.85,6.36 2.01,7.16c0.16,0.81 0.58,2.46 0.93,3.68c0.34,1.21 0.77,2.89 0.94,3.73c0.17,0.84 0.91,3.31 1.64,5.49c0.73,2.18 1.63,5.21 2,6.74c1.01,4.14 3.58,13.28 4.09,14.52c0.24,0.61 0.49,1.68 0.54,2.38c0.05,0.71 0.58,2.6 1.17,4.2c1.26,3.39 1.9,3.83 3.91,2.75c0.73,-0.38 1.76,-0.7 2.31,-0.7c0.54,0 1.49,-0.16 2.11,-0.36c0.62,-0.19 2.61,-0.79 4.43,-1.31c1.82,-0.53 3.69,-1.12 4.15,-1.3c0.46,-0.19 1.25,-0.34 1.75,-0.34c0.51,0 1.9,-0.5 3.11,-1.1c1.2,-0.61 3.14,-1.46 4.3,-1.89c3.99,-1.47 16.71,-8.12 18.41,-9.62c0.33,-0.29 2.01,-1.37 3.75,-2.38c1.73,-1.02 3.37,-2.12 3.64,-2.45c0.52,-0.63 3.58,-2.98 6.06,-4.67c3.03,-2.06 18.58,-18.29 20.86,-21.77c0.52,-0.81 1.53,-2.22 2.24,-3.13c2.72,-3.51 9.76,-14.31 11.61,-17.81c2.8,-5.29 4.29,-8.26 4.88,-9.73c0.28,-0.7 1.02,-2.52 1.64,-4.04c3.49,-8.54 6.02,-15.79 6.74,-19.28c0.25,-1.21 0.84,-3.34 1.31,-4.74c0.47,-1.4 0.85,-2.93 0.85,-3.39c0,-0.47 0.16,-1.56 0.36,-2.42c4,-17.32 4.53,-46.24 1.11,-60.34c-0.39,-1.63 -0.9,-4.19 -1.12,-5.69c-0.22,-1.51 -0.95,-4.56 -1.63,-6.78c-0.67,-2.22 -1.42,-4.86 -1.67,-5.87c-0.24,-1.01 -0.65,-2.34 -0.91,-2.94c-0.26,-0.61 -0.73,-1.85 -1.03,-2.76c-0.31,-0.91 -1.05,-2.81 -1.65,-4.22c-0.6,-1.41 -1.77,-4.19 -2.59,-6.17c-1.59,-3.8 -3.65,-7.84 -5.33,-10.47c-0.55,-0.88 -1.11,-1.87 -1.23,-2.21c-0.12,-0.34 -0.75,-1.44 -1.38,-2.45c-0.64,-1.01 -1.47,-2.33 -1.84,-2.94c-1.48,-2.43 -8.52,-11.49 -13.1,-16.86c-1.21,-1.41 -8.51,-8.13 -12.91,-11.88c-1.25,-1.07 -3.76,-2.92 -5.58,-4.12c-1.81,-1.2 -3.76,-2.53 -4.31,-2.95c-1.3,-1.01 -13.65,-7.23 -16.99,-8.57c-1.41,-0.57 -3.48,-1.41 -4.59,-1.88c-1.11,-0.47 -2.72,-1.04 -3.58,-1.26c-3.2,-0.83 -4.36,-1.14 -6.33,-1.7c-1.11,-0.31 -3.67,-0.82 -5.69,-1.14c-2.02,-0.31 -4.67,-0.72 -5.88,-0.91c-2.29,-0.36 -8.3,-0.96 -12.12,-1.21c-1.21,-0.08 -4.52,-0.01 -7.34,0.15m-91.8,19.5c1.5,1.02 2.82,2 2.92,2.16c0.1,0.16 1.76,1.43 3.68,2.81c3.73,2.69 5.12,3.74 8.51,6.42c1.18,0.93 2.63,1.94 3.24,2.26c0.61,0.31 1.76,1.14 2.57,1.85c1.41,1.23 3.3,2.67 7.45,5.65c1.88,1.36 3.03,2.22 6.49,4.89c1.03,0.79 1.67,1.57 1.67,2.04c0,0.83 -2,9.08 -2.33,9.62c-0.12,0.18 -0.64,1.97 -1.16,3.97c-0.53,2.01 -1.26,4.64 -1.63,5.85c-0.37,1.21 -0.95,3.2 -1.27,4.41c-0.57,2.1 -1.71,6.03 -2.45,8.47c-0.19,0.62 -0.34,1.45 -0.34,1.84c0,0.4 -0.35,1.62 -0.77,2.73c-0.42,1.11 -0.92,2.55 -1.1,3.21c-0.19,0.66 -0.5,1.77 -0.7,2.48c-0.21,0.7 -0.51,1.82 -0.68,2.48c-0.17,0.65 -0.5,1.77 -0.74,2.48c-0.24,0.7 -0.94,3.1 -1.56,5.32c-0.62,2.22 -1.46,5.2 -1.86,6.61c-0.4,1.41 -0.85,3.15 -1,3.86c-0.15,0.7 -0.54,2.03 -0.86,2.93c-0.32,0.91 -0.93,2.9 -1.35,4.41c-0.66,2.37 -1.68,5.81 -2.99,10.13c-0.19,0.62 -0.35,1.49 -0.35,1.94c0,0.45 -0.25,1.3 -0.55,1.89c-0.31,0.59 -1.05,3.02 -1.65,5.4c-1.04,4.09 -1.86,6.93 -3.85,13.32c-0.48,1.52 -1.05,3.67 -1.29,4.78c-0.23,1.11 -0.76,3.01 -1.17,4.22c-0.83,2.46 -2.09,6.86 -2.38,8.27c-0.1,0.5 -0.58,2.15 -1.07,3.67c-0.48,1.51 -1.28,4.24 -1.77,6.06c-1.83,6.8 -3.1,9.57 -3.99,8.68c-0.43,-0.43 -0.44,-101.76 -0.01,-152.8c0.15,-18.28 -0.13,-17.36 4.34,-14.31m46.02,34.85c0.98,0.61 1.92,1.1 2.07,1.1c0.16,0 0.9,0.54 1.65,1.2c0.76,0.65 2.67,2.1 4.25,3.21c1.58,1.11 3.46,2.52 4.18,3.13c0.72,0.62 2.22,1.78 3.33,2.6c1.11,0.81 3.59,2.64 5.51,4.06c1.92,1.42 4.23,3.11 5.14,3.75c0.91,0.64 2.58,1.86 3.71,2.72c1.13,0.85 2.51,1.88 3.06,2.29c1.06,0.78 6.27,4.66 10.34,7.71c1.34,1.01 2.82,2.08 3.27,2.38c0.45,0.31 1.77,1.3 2.93,2.21c1.16,0.91 2.81,2.15 3.68,2.75c0.86,0.61 2.83,2.1 4.38,3.31c2.74,2.15 4.24,3.24 10.42,7.65c1.65,1.17 3.1,2.29 3.22,2.49c0.12,0.19 0.83,0.76 1.57,1.26c0.74,0.5 2.09,1.48 3,2.18c0.91,0.7 2.48,1.85 3.5,2.55c2.63,1.82 3.59,2.93 3.31,3.82c-0.24,0.74 -7.48,5.84 -10.77,7.59c-0.95,0.51 -2.15,1.24 -2.65,1.62c-0.51,0.39 -2.91,1.88 -5.33,3.33c-2.42,1.45 -5.19,3.16 -6.15,3.8c-0.96,0.64 -2.53,1.65 -3.49,2.23c-0.96,0.59 -3.07,1.92 -4.68,2.96c-1.62,1.04 -4.1,2.61 -5.51,3.49c-1.41,0.88 -3.21,2.03 -3.99,2.55c-1.74,1.16 -4.34,2.8 -6.72,4.22c-0.97,0.58 -2.99,1.86 -4.47,2.85c-3.63,2.4 -4.27,2.34 -5.15,-0.43c-0.22,-0.7 -0.8,-2.52 -1.29,-4.03c-0.49,-1.52 -1.08,-3.75 -1.32,-4.96c-0.25,-1.21 -0.68,-2.76 -0.98,-3.45c-0.29,-0.68 -0.93,-2.83 -1.41,-4.77c-1.92,-7.73 -3.85,-15.04 -4.58,-17.31c-0.43,-1.31 -1.03,-3.37 -1.34,-4.59c-0.31,-1.21 -0.71,-2.69 -0.88,-3.3c-0.17,-0.61 -0.66,-2.42 -1.09,-4.04c-1.02,-3.86 -1.46,-5.35 -1.85,-6.24c-0.17,-0.41 -0.75,-2.47 -1.29,-4.59c-1.05,-4.18 -1.49,-5.73 -2.21,-7.72c-0.26,-0.7 -0.67,-2.27 -0.92,-3.48c-0.24,-1.22 -0.74,-3.12 -1.1,-4.23c-0.36,-1.11 -0.93,-3.17 -1.27,-4.59c-0.34,-1.41 -0.92,-3.56 -1.29,-4.77c-0.38,-1.21 -0.95,-3.28 -1.27,-4.59c-0.32,-1.32 -0.82,-3.22 -1.1,-4.23c-1.89,-6.8 -1.65,-7.67 1.58,-5.69"/>
  <path id="c42Dk0SSJg" d="m121.63,0.27391c-0.41,0.16 -2.97,0.58 -5.7,0.92c-5.3,0.65 -9.33,1.38 -12.3,2.22c-13.28,3.74 -22.36,7.32 -29.56,11.65c-0.71,0.42 -2.44,1.44 -3.86,2.26c-1.41,0.82 -2.98,1.79 -3.48,2.16c-0.51,0.37 -2.33,1.59 -4.04,2.73c-3.41,2.25 -4.64,3.18 -7.31,5.54c-2.54,2.24 -2.52,2.25 -7.99,-1.92c-1.58,-1.22 -3.29,-2.5 -3.8,-2.86c-3.63,-2.57 -6.22,-4.47 -9.22,-6.74c-1.9,-1.43 -3.96,-2.87 -4.58,-3.18c-0.62,-0.32 -1.34,-0.84 -1.6,-1.15c-0.63,-0.76 -1.23,-0.73 -2.28,0.12c-0.06,0.05 -0.35,0.28 -0.87,0.7l-0.18,24.78l-0.18,24.78c-0.68,0.96 -1.06,1.5 -1.14,1.61c-0.62,0.88 -1.58,2.58 -2.13,3.79c-0.54,1.21 -1.21,2.45 -1.48,2.75c-0.62,0.73 -3.67,6.81 -5.89,11.77c-2.16,4.83 -5.59,14.16 -7.08,19.28c-0.41,1.41 -1.16,3.97 -1.67,5.69c-0.5,1.72 -1.11,4.11 -1.36,5.32c-0.24,1.21 -0.67,3.2 -0.95,4.41c-0.28,1.21 -0.83,4.68 -1.22,7.71c-0.39,3.03 -0.81,6.17 -0.94,6.98c-1.06,6.95 -1.1,25.58 -0.06,30.66c0.11,0.51 0.38,2.74 0.6,4.96c0.86,8.34 2.06,14.41 4.62,23.32c1.57,5.46 4.87,14.69 5.97,16.72c0.85,1.56 3.36,7.08 3.36,7.38c0,0.64 6.17,11.26 8.65,14.88c2.98,4.36 3.58,5.19 4.94,6.77c0.71,0.82 2.31,2.8 3.55,4.4c4.45,5.72 15.92,16.23 22.52,20.64c20.11,13.42 41.41,19.79 63.9,19.1c6.07,-0.18 7.36,-0.5 8.03,-1.98c0.51,-1.11 1.43,-1.14 1.59,-0.05c0.13,0.93 2.51,1.4 3.38,0.67c0.33,-0.26 1.09,-0.25 2.52,0.05c1.67,0.35 2.25,0.34 3.09,-0.07c0.57,-0.28 3.02,-1.04 5.45,-1.69c5.37,-1.43 9.42,-2.6 11.38,-3.27c5.74,-1.97 18.76,-8.48 23.87,-11.93c1.42,-0.95 3.31,-2.12 4.22,-2.58c0.91,-0.46 2.7,-1.73 3.97,-2.81c1.28,-1.08 3.26,-2.61 4.41,-3.39c4.14,-2.81 18.03,-16.9 21.53,-21.85c0.59,-0.83 2.17,-3 3.51,-4.82c1.34,-1.82 3.42,-4.77 4.62,-6.57c1.19,-1.8 2.58,-3.87 3.07,-4.59c0.93,-1.37 4.37,-7.62 6.49,-11.79c2.87,-5.62 8.95,-21.82 10.06,-26.78c0.38,-1.73 0.96,-3.89 1.29,-4.8c0.32,-0.91 0.92,-3.55 1.32,-5.88c0.41,-2.32 0.91,-5.05 1.11,-6.06c3.04,-15.28 3.03,-42.14 -0.03,-54.9c-0.22,-0.91 -0.71,-3.47 -1.09,-5.69c-0.39,-2.22 -0.97,-4.78 -1.31,-5.69c-0.33,-0.91 -1,-3.23 -1.5,-5.14c-1,-3.86 -1.08,-4.07 -5.32,-14.51c-3.07,-7.57 -5.7,-12.64 -10.81,-20.88c-0.74,-1.2 -4.12,-5.91 -5.98,-8.33c-7.1,-9.27 -18.96,-20.8 -25.97,-25.25c-1.62,-1.02 -3.65,-2.37 -4.51,-2.99c-4.62,-3.32 -22.05,-11.11 -27.91,-12.48c-1.88,-0.43 -3.86,-0.96 -4.41,-1.18c-0.55,-0.21 -1.91,-0.52 -3.02,-0.69c-1.11,-0.17 -3.75,-0.58 -5.87,-0.92c-7.59,-1.22 -22.69,-2.03 -24.42,-1.31m16.34,0.75c2.12,0.2 4.85,0.51 6.06,0.71c1.21,0.19 3.85,0.6 5.87,0.91c2.02,0.32 4.59,0.83 5.7,1.14c1.96,0.56 3.13,0.87 6.33,1.7c0.86,0.22 2.47,0.79 3.58,1.26c1.11,0.46 3.18,1.31 4.59,1.88c3.34,1.34 15.68,7.56 16.99,8.56c0.55,0.43 2.49,1.76 4.31,2.96c1.82,1.2 4.33,3.05 5.58,4.11c4.4,3.75 11.7,10.47 12.91,11.89c4.57,5.37 11.62,14.43 13.1,16.86c0.37,0.61 1.2,1.93 1.83,2.94c0.64,1.01 1.26,2.11 1.39,2.45c0.12,0.34 0.67,1.33 1.23,2.2c1.68,2.64 3.74,6.68 5.32,10.48c0.83,1.98 2,4.75 2.6,6.17c0.6,1.41 1.34,3.31 1.64,4.22c0.31,0.91 0.78,2.15 1.04,2.76c0.26,0.6 0.67,1.92 0.91,2.93c0.24,1.01 1,3.66 1.67,5.88c0.68,2.22 1.41,5.27 1.63,6.77c0.22,1.51 0.73,4.07 1.12,5.7c3.42,14.1 2.89,43.02 -1.11,60.34c-0.2,0.86 -0.36,1.95 -0.36,2.41c0,0.47 -0.39,2 -0.85,3.39c-0.47,1.4 -1.06,3.54 -1.31,4.75c-0.72,3.49 -3.25,10.74 -6.74,19.28c-0.62,1.52 -1.36,3.33 -1.64,4.04c-0.59,1.47 -2.08,4.44 -4.88,9.73c-1.85,3.5 -8.9,14.3 -11.62,17.81c-0.7,0.91 -1.71,2.32 -2.24,3.12c-2.28,3.49 -17.82,19.72 -20.85,21.78c-2.48,1.68 -5.54,4.04 -6.06,4.67c-0.28,0.33 -1.91,1.43 -3.65,2.45c-1.73,1.01 -3.41,2.08 -3.74,2.38c-1.71,1.5 -14.42,8.15 -18.41,9.62c-1.16,0.43 -3.1,1.27 -4.3,1.88c-1.21,0.61 -2.61,1.11 -3.11,1.11c-0.5,0 -1.29,0.15 -1.75,0.34c-0.47,0.18 -2.33,0.77 -4.15,1.29c-1.82,0.53 -3.81,1.12 -4.43,1.32c-0.62,0.19 -1.58,0.35 -2.12,0.35c-0.54,0 -1.58,0.32 -2.3,0.71c-2.02,1.08 -2.65,0.64 -3.91,-2.75c-0.59,-1.6 -1.12,-3.49 -1.17,-4.2c-0.06,-0.71 -0.3,-1.78 -0.54,-2.38c-0.51,-1.25 -3.08,-10.38 -4.09,-14.53c-0.37,-1.52 -1.27,-4.55 -2,-6.73c-0.73,-2.18 -1.47,-4.65 -1.64,-5.49c-0.17,-0.84 -0.6,-2.52 -0.94,-3.74c-0.35,-1.21 -0.77,-2.86 -0.93,-3.67c-0.17,-0.81 -1.07,-4.03 -2.01,-7.16c-0.95,-3.13 -2.36,-8.17 -3.14,-11.2c-0.78,-3.03 -1.6,-5.92 -1.83,-6.43c-0.23,-0.5 -0.8,-2.4 -1.26,-4.22c-0.47,-1.82 -1.71,-6.44 -2.76,-10.28c-1.04,-3.84 -2.22,-8.22 -2.62,-9.73c-0.39,-1.52 -1.35,-4.82 -2.13,-7.35c-0.78,-2.52 -1.84,-6.16 -2.36,-8.08c-0.52,-1.92 -1.37,-4.97 -1.9,-6.79c-0.52,-1.82 -1.18,-4.13 -1.47,-5.14c-0.29,-1.01 -0.54,-2.17 -0.55,-2.57c-0.01,-0.41 -0.33,-1.4 -0.72,-2.21c-0.39,-0.81 -0.72,-1.8 -0.73,-2.2c-0.04,-1.42 -1.5,-6.64 -2.73,-9.73c-0.69,-1.72 -1.84,-5.6 -2.58,-8.63c-1.63,-6.78 -1.62,-6.75 -3.63,-13.96c-0.9,-3.23 -2.09,-7.61 -2.65,-9.73c-0.56,-2.12 -1.21,-4.52 -1.46,-5.32c-0.24,-0.81 -0.71,-2.46 -1.04,-3.68c-2.1,-7.76 -2.75,-10.1 -3.74,-13.4c-0.27,-0.91 -0.85,-2.97 -1.28,-4.59c-0.43,-1.62 -1.09,-3.85 -1.46,-4.96c-1.25,-3.72 -2.84,-9.34 -3.49,-12.3c-0.35,-1.62 -0.77,-3.1 -0.93,-3.31c-0.16,-0.2 -0.4,-1.02 -0.54,-1.83c-0.13,-0.81 -0.42,-1.95 -0.65,-2.53c-0.02,-0.07 -0.16,-0.43 -0.4,-1.06c-0.4,0.49 -0.62,0.77 -0.67,0.82c-0.37,0.46 -0.67,1.06 -0.67,1.33c0,0.49 -1.43,5.57 -3.71,13.19c-0.6,2.02 -1.51,5.24 -2.02,7.16c-0.5,1.92 -1.22,4.4 -1.59,5.51c-0.37,1.11 -1.04,3.42 -1.49,5.14c-0.45,1.72 -1.12,4.03 -1.48,5.14c-0.36,1.11 -0.92,3.1 -1.26,4.41c-0.33,1.31 -0.85,3.13 -1.16,4.04c-0.31,0.91 -0.89,2.89 -1.29,4.41c-0.39,1.51 -1.12,3.99 -1.6,5.5c-2.11,6.61 -5.67,20.04 -5.69,21.49c0,0.4 -0.74,3.29 -1.63,6.42c-1.44,5.04 -2.35,7.87 -4.5,13.96c-0.96,2.73 -1.91,6.25 -2.49,9.29c-0.31,1.58 -1.05,3.98 -1.64,5.33c-0.59,1.35 -1.48,4.44 -1.97,6.86c-0.5,2.43 -1.4,5.73 -2.02,7.35c-1.11,2.9 -2.27,7.38 -2.3,8.81c0,0.4 -0.24,1.04 -0.52,1.41c-0.59,0.79 -1.48,4.22 -1.17,4.54c0.12,0.12 0.87,-0.37 1.66,-1.09c0.79,-0.71 1.74,-1.4 2.12,-1.52c0.37,-0.12 1.07,-0.8 1.56,-1.5c0.48,-0.71 1.16,-1.29 1.51,-1.29c0.35,0 1.75,-1.07 3.12,-2.37c2.67,-2.56 2.8,-2.87 4.59,-11.03c0.27,-1.22 0.8,-3.45 1.19,-4.96c0.39,-1.52 0.79,-3.25 0.89,-3.86c0.1,-0.6 0.4,-1.59 0.67,-2.2c0.26,-0.61 0.6,-1.67 0.75,-2.37c0.14,-0.7 0.57,-1.86 0.94,-2.57c0.73,-1.4 1.86,-5.24 3.63,-12.32c0.61,-2.42 1.68,-6.56 2.4,-9.18c2.01,-7.46 3.83,-14.28 5.15,-19.28c3.07,-11.75 3.88,-14.74 4.22,-15.63c0.2,-0.52 0.36,-1.42 0.36,-1.99c0,-0.58 0.3,-1.76 0.68,-2.64c0.37,-0.87 1.3,-4.07 2.06,-7.1c1.95,-7.78 2.41,-8.75 3.92,-8.35c1.1,0.28 2.94,5.2 3.61,9.64c0.23,1.51 0.67,3.46 0.98,4.32c0.73,2.01 2.59,9.39 3.24,12.83c0.27,1.46 0.76,3.18 1.08,3.82c0.32,0.65 0.59,1.71 0.59,2.36c0,0.66 0.51,3.15 1.15,5.55c0.63,2.39 1.28,4.93 1.45,5.64c0.16,0.7 0.56,2.36 0.88,3.67c0.32,1.31 0.84,3.54 1.14,4.96c0.68,3.12 2.31,8.96 2.72,9.76c0.17,0.32 0.41,1.56 0.55,2.75c0.14,1.2 0.96,4.49 1.83,7.32c2.5,8.09 2.93,9.94 4.55,19.46c0.7,4.09 3.24,14.73 4.27,17.86c0.3,0.94 0.55,1.99 0.55,2.35c0,0.71 1.34,6.43 3.04,13.02c1.45,5.63 1.82,7.11 3.03,12.31c0.56,2.42 1.33,5.64 1.72,7.16c0.38,1.51 1.26,5.12 1.95,8.02c0.69,2.89 1.49,5.73 1.78,6.31c0.56,1.13 0.92,2.55 2.09,8.25c1.86,9.12 2.14,10.43 2.73,12.86c0.34,1.41 0.94,3.66 1.32,4.99c1.39,4.86 1.79,7.34 1.21,7.56c-1.46,0.56 -18.08,-0.53 -23.09,-1.52c-1.62,-0.32 -3.76,-0.73 -4.77,-0.91c-1.01,-0.18 -2.58,-0.57 -3.49,-0.87c-0.91,-0.29 -3.14,-0.98 -4.96,-1.53c-10.31,-3.12 -23.25,-9.81 -33.36,-17.24c-3.14,-2.32 -15.76,-14.19 -17,-16.01c-0.98,-1.42 -2.99,-3.99 -4.49,-5.7c-1.19,-1.38 -2.57,-3.31 -7.15,-10.02c-1.74,-2.55 -5.65,-9.92 -7.65,-14.39c-1.21,-2.72 -2.36,-5.14 -2.54,-5.36c-0.19,-0.23 -1,-2.29 -1.79,-4.6c-0.8,-2.3 -1.77,-5.09 -2.16,-6.2c-1.26,-3.61 -2.63,-8.29 -2.63,-8.99c0,-0.38 -0.32,-1.61 -0.7,-2.74c-0.38,-1.12 -0.81,-2.7 -0.94,-3.51c-0.14,-0.81 -0.49,-2.87 -0.79,-4.59c-0.3,-1.72 -0.71,-4.53 -0.9,-6.24c-0.2,-1.72 -0.52,-4.36 -0.72,-5.88c-1.1,-8.26 -1.1,-25.79 0,-32.68c0.21,-1.31 0.53,-3.63 0.71,-5.14c0.55,-4.57 1.16,-8.56 1.36,-8.88c0.1,-0.17 0.35,-1.17 0.55,-2.23c0.67,-3.6 1.58,-7.41 2.12,-8.91c0.22,-0.6 0.75,-2.34 1.18,-3.85c1.48,-5.27 4.19,-12.92 5.83,-16.53c0.59,-1.31 1.58,-3.57 2.2,-5.01c0.61,-1.45 2.05,-4.34 3.2,-6.43c1.14,-2.09 2.71,-5.07 3.47,-6.61c0.76,-1.55 1.55,-2.92 1.75,-3.04c1.47,-0.91 1.51,-1.52 1.51,-26.72c0,-1.62 0,-9.68 0,-24.2c0.56,-0.56 0.87,-0.87 0.93,-0.94c0.89,-0.88 0.98,-0.9 1.75,-0.34c0.44,0.33 1.3,0.91 1.91,1.29c0.6,0.38 1.68,1.13 2.39,1.66c0.7,0.53 1.94,1.45 2.75,2.04c0.81,0.58 2.05,1.49 2.75,2.01c0.71,0.52 2.23,1.65 3.39,2.5c1.15,0.85 3.35,2.45 4.89,3.56c1.53,1.12 3.46,2.56 4.27,3.22c2.31,1.86 3.03,1.9 4.68,0.23c2.86,-2.89 13.05,-9.97 17.66,-12.27c0.91,-0.45 2.07,-1.11 2.57,-1.46c3.57,-2.49 14.98,-7.29 22.4,-9.42c1.72,-0.49 3.95,-1.13 4.96,-1.42c1.01,-0.29 3.16,-0.79 4.78,-1.11c1.61,-0.32 3.63,-0.73 4.47,-0.92c0.85,-0.19 2.45,-0.35 3.56,-0.35c1.11,0 2.48,-0.18 3.05,-0.4c1.22,-0.48 10.36,-1.05 13.52,-0.85c1.21,0.08 3.94,0.3 6.06,0.5m-109.01,17.76c-0.52,0.62 -0.62,12.84 -0.82,99.48c-0.16,70.5 -0.16,70.4 1.16,69.08c0.55,-0.55 2.06,-4.76 3.13,-8.75c0.49,-1.81 1.29,-4.54 1.77,-6.05c0.48,-1.52 0.96,-3.17 1.07,-3.68c0.28,-1.4 1.55,-5.8 2.38,-8.26c0.41,-1.21 0.93,-3.11 1.17,-4.22c0.23,-1.11 0.81,-3.26 1.28,-4.78c2,-6.39 2.82,-9.23 3.86,-13.32c0.6,-2.38 1.34,-4.81 1.65,-5.4c0.3,-0.59 0.55,-1.44 0.55,-1.89c0,-0.45 0.15,-1.33 0.34,-1.95c1.32,-4.31 2.34,-7.75 3,-10.12c0.42,-1.52 1.03,-3.5 1.35,-4.41c0.32,-0.91 0.71,-2.23 0.86,-2.93c0.15,-0.71 0.6,-2.45 1,-3.86c0.4,-1.42 1.23,-4.39 1.86,-6.61c0.62,-2.22 1.32,-4.62 1.56,-5.33c0.23,-0.7 0.57,-1.82 0.74,-2.48c0.17,-0.65 0.47,-1.77 0.67,-2.47c0.21,-0.71 0.52,-1.83 0.71,-2.48c0.18,-0.66 0.68,-2.1 1.1,-3.21c0.42,-1.11 0.77,-2.34 0.77,-2.73c0,-0.39 0.15,-1.22 0.34,-1.84c0.74,-2.44 1.88,-6.38 2.44,-8.47c0.33,-1.22 0.91,-3.2 1.28,-4.41c0.37,-1.21 1.1,-3.84 1.63,-5.85c0.52,-2 1.04,-3.79 1.16,-3.97c0.33,-0.54 2.33,-8.79 2.33,-9.62c0,-0.47 -0.65,-1.26 -1.67,-2.04c-3.46,-2.67 -4.61,-3.53 -6.49,-4.89c-4.15,-2.99 -6.04,-4.42 -7.45,-5.66c-0.81,-0.7 -1.96,-1.53 -2.57,-1.85c-0.61,-0.31 -2.07,-1.32 -3.24,-2.25c-3.39,-2.69 -4.78,-3.73 -8.51,-6.42c-1.92,-1.38 -3.58,-2.65 -3.68,-2.81c-0.28,-0.45 -5.61,-4.03 -6,-4.03c-0.18,0 -0.51,0.21 -0.73,0.48m3.68,1.77c1.27,0.83 2.81,1.97 3.42,2.53c0.61,0.56 1.78,1.49 2.61,2.07c0.83,0.57 3.13,2.28 5.12,3.8c5.28,4.03 6.47,4.91 7.74,5.7c0.64,0.4 2.41,1.72 3.94,2.93c1.52,1.21 4.36,3.36 6.3,4.77c5.33,3.88 7.16,5.4 7.16,5.96c0,0.63 -0.63,3.34 -1.34,5.79c-0.29,1.01 -0.84,2.91 -1.22,4.23c-0.38,1.31 -0.97,3.46 -1.32,4.77c-0.34,1.31 -0.91,3.3 -1.26,4.41c-0.35,1.11 -0.93,3.09 -1.28,4.4c-0.36,1.32 -0.94,3.38 -1.31,4.59c-0.36,1.22 -0.85,3.12 -1.09,4.23c-0.24,1.11 -0.76,2.93 -1.15,4.04c-0.39,1.11 -1.12,3.42 -1.61,5.14c-1.57,5.45 -2.46,8.58 -2.93,10.28c-1.06,3.84 -2.14,7.64 -2.61,9.15c-0.28,0.9 -0.51,1.94 -0.51,2.32c0,0.38 -0.31,1.47 -0.7,2.42c-0.73,1.81 -2.96,9.35 -4.14,14.02c-0.38,1.51 -1.04,3.75 -1.46,4.96c-0.42,1.21 -0.89,2.78 -1.06,3.49c-0.51,2.25 -1.74,6.65 -3.27,11.75c-0.82,2.72 -1.75,6.03 -2.07,7.34c-0.31,1.32 -0.98,3.63 -1.47,5.14c-0.5,1.52 -1.37,4.58 -1.95,6.8c-0.57,2.22 -1.4,5.11 -1.84,6.42c-0.44,1.32 -1.03,3.47 -1.32,4.78c-0.28,1.31 -1.09,3.54 -1.8,4.96c-0.09,0.17 -0.52,1.02 -1.3,2.57c0,-0.95 -0.01,-1.48 -0.01,-1.59c0,-0.87 -0.19,-2.3 -0.42,-3.19c-0.42,-1.7 0.17,-161.45 0.61,-162.16c0.39,-0.62 1.2,-0.35 3.54,1.18m43.45,33.74c-0.25,0.4 0.27,3.37 1.12,6.42c0.28,1.01 0.77,2.91 1.1,4.23c0.32,1.31 0.89,3.37 1.26,4.59c0.38,1.21 0.96,3.36 1.3,4.77c0.33,1.41 0.9,3.48 1.27,4.59c0.36,1.11 0.85,3.01 1.1,4.22c0.25,1.22 0.66,2.79 0.92,3.49c0.72,1.99 1.16,3.54 2.21,7.71c0.54,2.13 1.12,4.19 1.29,4.6c0.38,0.89 0.83,2.38 1.85,6.24c0.43,1.61 0.92,3.43 1.09,4.04c0.17,0.6 0.57,2.09 0.88,3.3c0.31,1.21 0.91,3.28 1.33,4.59c0.73,2.27 2.67,9.58 4.59,17.31c0.48,1.94 1.11,4.09 1.41,4.77c0.29,0.68 0.73,2.23 0.97,3.45c0.25,1.21 0.84,3.44 1.33,4.95c0.49,1.52 1.07,3.34 1.29,4.04c0.88,2.77 1.52,2.82 5.15,0.42c1.48,-0.98 3.49,-2.26 4.47,-2.84c2.38,-1.42 4.98,-3.06 6.72,-4.22c0.78,-0.52 2.57,-1.67 3.99,-2.55c1.41,-0.88 3.89,-2.45 5.51,-3.49c1.61,-1.04 3.72,-2.37 4.68,-2.96c0.95,-0.59 2.52,-1.59 3.49,-2.23c0.96,-0.64 3.73,-2.35 6.15,-3.8c2.42,-1.45 4.82,-2.95 5.32,-3.33c0.51,-0.39 1.71,-1.12 2.66,-1.62c3.29,-1.75 10.53,-6.85 10.77,-7.59c0.28,-0.89 -0.69,-2.01 -3.32,-3.82c-1.01,-0.7 -2.59,-1.85 -3.5,-2.55c-0.9,-0.7 -2.25,-1.69 -2.99,-2.18c-0.74,-0.5 -1.45,-1.07 -1.57,-1.26c-0.12,-0.2 -1.57,-1.32 -3.22,-2.5c-6.18,-4.4 -7.68,-5.5 -10.42,-7.64c-1.55,-1.22 -3.52,-2.7 -4.39,-3.31c-0.86,-0.6 -2.51,-1.84 -3.67,-2.75c-1.16,-0.91 -2.48,-1.9 -2.93,-2.21c-0.46,-0.3 -1.93,-1.37 -3.28,-2.38c-4.06,-3.05 -9.27,-6.94 -10.33,-7.72c-0.55,-0.4 -1.93,-1.43 -3.06,-2.28c-1.13,-0.86 -2.8,-2.08 -3.71,-2.72c-0.91,-0.65 -3.22,-2.33 -5.14,-3.75c-1.92,-1.42 -4.4,-3.25 -5.51,-4.06c-1.11,-0.82 -2.61,-1.99 -3.33,-2.6c-0.72,-0.61 -2.6,-2.02 -4.19,-3.13c-1.58,-1.11 -3.49,-2.56 -4.24,-3.21c-0.75,-0.66 -1.5,-1.2 -1.65,-1.2c-0.15,0 -1.09,-0.49 -2.07,-1.1c-1.94,-1.19 -2.35,-1.3 -2.7,-0.73m5.68,2.93c1.22,0.97 5.85,4.46 6.86,5.15c0.44,0.3 2.01,1.54 3.49,2.75c1.49,1.21 3.44,2.7 4.34,3.3c2.14,1.44 7.5,5.39 9.36,6.9c0.8,0.65 2.31,1.76 3.34,2.47c1.04,0.71 3.94,2.81 6.44,4.67c2.51,1.86 6.19,4.59 8.18,6.06c1.99,1.47 4.22,3.19 4.95,3.81c0.74,0.63 2.06,1.6 2.95,2.15c0.88,0.55 2.83,2.02 4.33,3.26c1.51,1.25 3.68,2.88 4.83,3.63c1.15,0.74 2.83,1.94 3.74,2.65c2.35,1.85 6.15,4.7 7.12,5.35c0.45,0.3 1.56,1.17 2.48,1.92c0.91,0.75 2.71,2.08 4.01,2.95c3.63,2.42 3.48,3.02 -1.68,6.44c-2.22,1.48 -4.7,3.03 -5.5,3.44c-0.81,0.42 -2.04,1.19 -2.74,1.73c-1.24,0.94 -3.47,2.28 -7.18,4.29c-1.01,0.55 -2.5,1.53 -3.3,2.19c-0.81,0.65 -2.8,1.96 -4.41,2.91c-2.71,1.58 -4.21,2.52 -7.03,4.39c-0.58,0.39 -2.37,1.53 -3.99,2.55c-4.4,2.76 -6.75,4.27 -9.05,5.82c-1.15,0.77 -2.23,1.4 -2.42,1.4c-0.19,0 -1.28,0.66 -2.43,1.46c-2.76,1.93 -4.12,2.62 -4.73,2.38c-0.51,-0.19 -2.76,-7.02 -3.58,-10.82c-0.24,-1.11 -0.74,-2.84 -1.11,-3.85c-0.38,-1.01 -0.96,-3.08 -1.3,-4.59c-0.33,-1.52 -0.9,-3.75 -1.26,-4.96c-0.36,-1.21 -1.03,-3.86 -1.5,-5.88c-0.46,-2.02 -1,-4 -1.2,-4.4c-0.2,-0.39 -0.49,-1.22 -0.65,-1.83c-0.16,-0.61 -0.79,-2.93 -1.42,-5.15c-0.62,-2.22 -1.63,-5.92 -2.23,-8.21c-0.6,-2.3 -1.17,-4.3 -1.26,-4.44c-0.09,-0.14 -0.59,-1.9 -1.11,-3.91c-0.52,-2 -1.16,-4.3 -1.43,-5.11c-0.74,-2.25 -1.56,-5.14 -2.61,-9.18c-0.89,-3.43 -1.89,-7.12 -3.24,-11.93c-2.71,-9.65 -2.88,-10.65 -2.08,-12.14c0.53,-0.99 2.56,-0.8 4.02,0.38"/>
 </defs>
 <g>
  <title>Layer 1</title>
  <g id="svg_1">
   <g id="svg_2">
    <g id="svg_3">
     <use x="0" y="0.00391" id="svg_4" fill="#20c20e" xlink:href="#htzAijSxA"/>
     <g id="svg_5">
      <use x="0" y="0.00391" id="svg_6" stroke-opacity="0" stroke="#000000" fill-opacity="0" xlink:href="#htzAijSxA"/>
     </g>
    </g>
    <g id="svg_7">
     <use x="0" y="0.00391" id="svg_8" fill="#000000" xlink:href="#c42Dk0SSJg"/>
     <g id="svg_9">
      <use x="0" y="0.00391" id="svg_10" stroke-opacity="0" stroke="#000000" fill-opacity="0" xlink:href="#c42Dk0SSJg"/>
     </g>
    </g>
   </g>
  </g>
 </g>
</svg>